# xmcd
#
# Track frame offsets:
#	150
#	13242
#	29423
#	43206
#	55429
#	71690
#	87001
#	103113
#	120673
#	131675
#	148330
#
# Disc length: 2217 seconds
# Revision: 0
# Processed by: cddbd v1.5.2PL0 Copyright (c) Steve Scherf et al.
# Submitted via: dBpowerAMP V12.0
#
DISCID=a608a70b
DTITLE=Col Carter - Long Way Home
DYEAR=2008
DGENRE=Country
TTITLE0=In A While
TTITLE1=Cry a Little
TTITLE2=Six Days
TTITLE3=Endless Sleep
TTITLE4=Last Letter
TTITLE5=Big City
TTITLE6=Long Way Home
TTITLE7=Storms Never Last
TTITLE8=Looking For Suzanne
TTITLE9=Wrong Way
TTITLE10=Gypsy in My Blood
EXTD=
EXTT0=
EXTT1=
EXTT2=
EXTT3=
EXTT4=
EXTT5=
EXTT6=
EXTT7=
EXTT8=
EXTT9=
EXTT10=
PLAYORDER=
